<?xml version="1.0" encoding="utf-8"?>
<!-- Svg Vector Icons : http://www.onlinewebfonts.com/icon -->
<!DOCTYPE svg PUBLIC "-//W3C//DTD SVG 1.1//EN" "http://www.w3.org/Graphics/SVG/1.1/DTD/svg11.dtd">
<svg version="1.1" xmlns="http://www.w3.org/2000/svg" xmlns:xlink="http://www.w3.org/1999/xlink" x="0px" y="0px" viewBox="0 0 1000 1000" enable-background="new 0 0 1000 1000" xml:space="preserve" fill="white" stroke-width='2px'>
<metadata> Svg Vector Icons : http://www.onlinewebfonts.com/icon </metadata>
<g><path d="M912.2,819.7H87.8c-43,0-77.8-34.9-77.8-78c0,0,0-115.4,0-155.9c0,4.8,108.9-8.8,108.9-93.6c0-69.9-108.9-92.6-108.9-93.6c0-71.3,0-140.3,0-140.3c0-43.1,34.8-78,77.8-78h824.4c43,0,77.8,34.9,77.8,78v483.4C990,784.8,955.2,819.7,912.2,819.7z M943.3,227.1c0,0-422.8,0-684.4,0v31.2h-31.1v-31.2c-100.9,0-171.1,0-171.1,0v140.3c0,0,108.9,30.9,108.9,124.7C165.6,585.9,56.7,617,56.7,617v155.9h171.1v-31.2h31.1v31.2h684.4V227.1z M227.8,632.5h31.1v62.4h-31.1V632.5z M227.8,523.4h31.1v62.4h-31.1V523.4z M227.8,414.2h31.1v62.4h-31.1V414.2z M227.8,305.1h31.1v62.4h-31.1V305.1z"/></g>
</svg>