<?xml version="1.0" encoding="UTF-8" standalone="no"?>
<!DOCTYPE svg PUBLIC "-//W3C//DTD SVG 1.1//EN" "http://www.w3.org/Graphics/SVG/1.1/DTD/svg11.dtd">
<!-- Created with Vectornator (http://vectornator.io/) -->
<svg height="100%" stroke-miterlimit="10" style="fill-rule:nonzero;clip-rule:evenodd;stroke-linecap:round;stroke-linejoin:round;" version="1.1" viewBox="0 0 65 78" width="100%" xml:space="preserve" xmlns="http://www.w3.org/2000/svg" xmlns:vectornator="http://vectornator.io" xmlns:xlink="http://www.w3.org/1999/xlink">
<defs/>
<g id="레이어-2" vectornator:layerName="레이어 2">
<path d="M32.1875 7.5624C11.7131 7.72462 10.2812 27.6952 10.2812 27.6952C10.2813 27.6952 1.40223 40.3847 1.875 48.5789C2.34777 56.7732 12.7812 61.4038 12.7812 61.4038C12.7812 61.4038 18.3485 67.157 36.9375 67.4119C52.2453 67.6217 57.6875 58.2554 57.6875 58.2554C57.6875 58.2554 61.1586 51.594 60.6562 43.553C60.1539 35.512 57.1875 29.6305 57.1875 29.6305C57.1875 29.6305 56.7335 7.36792 32.1875 7.5624ZM28.3438 14.0037C33.2781 14.0037 37.5826 16.4457 39.9375 20.0984C41.1409 21.965 41.8438 24.1514 41.8438 26.482C41.8438 33.3736 35.7996 38.9603 28.3438 38.9603C20.8879 38.9603 14.8438 33.3736 14.8438 26.482C14.8438 19.5904 20.8879 14.0037 28.3438 14.0037Z" fill="#ffffff" fill-rule="evenodd" opacity="1" stroke="none"/>
<g opacity="1">
<path d="M42.7609 30.6357L39.9364 34.0288L43.0372 35.7824L45.7318 33.3693L42.7609 30.6357Z" fill="#ffffff" fill-rule="evenodd" stroke="none"/>
<path d="M42.9375 30.4062C42.8127 30.3024 42.6351 30.3127 42.5312 30.4375C41.1186 32.1337 41.6198 31.5627 41.125 32.1562C41.0035 32.302 40.8715 32.4481 40.75 32.5938C40.4969 32.8973 39.7819 33.5321 39.75 33.9688C39.7169 34.4205 40.966 34.9544 41.1562 35.0625C41.4009 35.2015 42.7605 36.1287 43.2188 35.9688C43.5751 35.8444 44.03 35.3213 44.25 35.125C44.4824 34.9177 44.7052 34.7074 44.9375 34.5C45.078 34.3745 45.2032 34.2505 45.3438 34.125C45.4887 33.9955 46.0565 33.6338 46.0312 33.4062C45.9939 33.0695 45.6993 32.9311 45.4688 32.7188C45.1285 32.4054 45.4744 32.7138 42.9688 30.4062C42.9598 30.398 42.9471 30.4132 42.9375 30.4062ZM42.7812 31.0625C43.0116 31.2743 43.1526 31.4155 43.3125 31.5625C43.7914 32.0028 44.2711 32.4347 44.75 32.875C44.9227 33.0338 45.1084 33.2163 45.2812 33.375C45.2414 33.4109 45.1962 33.4329 45.1562 33.4688C44.9476 33.6561 44.7399 33.8438 44.5312 34.0312C44.3658 34.1799 43.0454 35.4068 43.0312 35.4062C42.8609 35.3999 42.6776 35.2387 42.5312 35.1562C42.026 34.8718 41.5052 34.5657 41 34.2812C40.8126 34.1757 40.6249 34.0743 40.4375 33.9688C40.424 33.9612 40.4273 33.9505 40.4062 33.9375C40.5803 33.6158 41.052 33.1694 41.2188 32.9688C41.34 32.8229 41.4412 32.6771 41.5625 32.5312C41.6379 32.4405 41.8645 32.1814 41.9375 32.0938C42.0562 31.9511 42.2776 31.6678 42.7812 31.0625Z" fill="#232323" stroke="none"/>
</g>
<path d="M27.1666 37.2686L22.4833 63.9059C22.4833 63.9059 23.2351 64.7016 24.1506 64.9089C25.0662 65.1163 26.1455 64.7354 26.1455 64.7354L31.2259 37.5896L27.1666 37.2686Z" fill="#232323" fill-rule="evenodd" opacity="1" stroke="none"/>
<path d="M16.8548 26.4446C16.8548 20.4119 22.1142 15.5214 28.6019 15.5214C35.0897 15.5214 40.349 20.4119 40.349 26.4446C40.349 32.4773 35.0897 37.3678 28.6019 37.3678C22.1142 37.3678 16.8548 32.4773 16.8548 26.4446Z" fill="none" fill-rule="evenodd" opacity="1" stroke="#ffffff" stroke-dasharray="1.0" stroke-linecap="square" stroke-linejoin="round" stroke-width="1.09677"/>
<g opacity="1">
<path d="M9.69138 27.6941C9.69138 27.6941 5.69291 36.7672 13.0208 38.9308C20.8349 41.2381 31.6867 31.7858 31.6867 31.7858C31.6867 31.7858 34.7631 35.5145 33.9377 39.3817C33.1123 43.2488 28.385 47.2544 28.385 47.2544C28.385 47.2544 30.1191 45.6288 31.453 44.0415C32.7868 42.4541 33.6201 40.7653 33.6201 40.7653C33.6201 40.7653 36.1753 44.605 33.3088 50.1304C32.276 52.1212 27.8288 54.8818 27.8288 54.8818L30.7682 52.7749L32.3079 51.4998C32.3079 51.4998 31.4676 57.1488 27.3106 59.7243C23.1536 62.2998 7.15063 65.956 1.72082 53.3265C-2.16383 44.2909 9.69138 27.6941 9.69138 27.6941Z" fill="#ffffff" fill-rule="evenodd" stroke="none"/>
<path d="M9.90625 27.2188C9.8346 27.1876 9.79192 27.3096 9.71875 27.3125C9.54928 27.3094 9.35557 27.2264 9.25 27.375C9.2348 27.3964 9.41378 27.4602 9.25 27.4062C9.18347 27.3843 9.16491 27.5362 9.125 27.5938C8.99887 27.7757 8.87337 27.9411 8.75 28.125C8.30352 28.7904 7.85675 29.4733 7.4375 30.1562C5.30706 33.6265 3.43503 37.2349 2.03125 41.0625C0.820763 44.3631-0.064841 48.1458 0.65625 51.6562C0.959624 53.1332 1.61082 54.5081 2.40625 55.7812C6.45176 62.2564 14.2212 63.6826 21.3125 62.3438C23.25 61.9779 25.209 61.4391 26.9688 60.5312C28.2787 59.8555 29.3721 58.8351 30.25 57.6562C30.8954 56.7896 31.4247 55.8384 31.8438 54.8438C32.0694 54.3082 32.2707 53.7753 32.4375 53.2188C32.5301 52.9098 32.6144 52.5953 32.6875 52.2812C32.7593 51.9728 32.838 51.7333 32.8125 51.5312C34.8302 49.2489 35.6001 45.8028 34.9688 42.875C34.839 42.2732 34.5464 41.028 34.0312 40.5C34.7977 38.2891 34.6784 36.0745 33.4062 33.5625C33.0502 32.8594 32.6251 31.9866 32.0312 31.4375C31.5398 30.983 30.8312 31.825 30.5312 32.0625C30.3847 32.1786 30.242 32.3236 30.0938 32.4375C29.9191 32.5717 29.7391 32.6809 29.5625 32.8125C29.3641 32.9603 29.1695 33.1055 28.9688 33.25C28.7466 33.4099 28.5376 33.5943 28.3125 33.75C28.0686 33.9187 27.8097 34.0548 27.5625 34.2188C23.929 36.6282 19.1012 39.2328 14.5625 38.7188C10.7531 38.2873 8.81944 35.7465 9.15625 31.9062C9.2344 31.0152 9.40509 30.1387 9.65625 29.2812C9.7685 28.898 9.91817 28.5286 10.0625 28.1562C10.0644 28.1513 10.0994 28.0629 10.125 28C10.14 27.9631 10.1175 28.0016 10.1562 27.9062C10.1967 27.8133 10.0783 27.7492 10.0625 27.6562C10.047 27.5101 10.1292 27.3418 10 27.25C9.98062 27.2362 9.95796 27.2608 9.9375 27.25C9.9244 27.2429 9.92019 27.2248 9.90625 27.2188ZM8.3125 30.875C8.14624 31.8613 8.04735 32.8535 8.15625 33.8438C8.56994 37.6057 11.4429 39.5631 15 39.7812C19.387 40.0504 23.7152 37.8663 27.3125 35.5938C28.4817 34.8551 29.6221 34.0611 30.7188 33.2188C31.025 32.9835 31.2951 32.7449 31.5938 32.5C31.6424 32.5688 31.6996 32.6435 31.75 32.7188C32.0316 33.1387 32.2713 33.5803 32.5 34.0312C33.1171 35.248 33.5488 36.5629 33.5625 37.9375C33.5777 39.4575 32.9428 40.9591 32.0625 42.3438C31.4433 43.2502 30.685 44.0432 29.9375 44.8438C29.3064 45.5097 28.7007 46.2837 28.0938 46.8125C28.0838 46.8212 28.0724 46.8351 28.0625 46.8438C28.0387 46.8687 27.9952 46.9027 28 46.9375C28.0356 47.195 27.952 47.4935 28.125 47.6875C28.2434 47.8202 28.4788 47.6988 28.6562 47.6875C28.6924 47.6852 28.7219 47.6475 28.75 47.625C28.7539 47.6212 28.7424 47.6011 28.75 47.5938C28.7578 47.5864 28.7922 47.6129 28.8125 47.5938C28.8169 47.5888 28.8082 47.5676 28.8125 47.5625C28.849 47.5278 28.9011 47.5036 28.9375 47.4688C29.1346 47.292 29.3086 47.0894 29.5 46.9062C29.6649 46.7485 29.8397 46.5997 30 46.4375C30.1243 46.3117 30.2214 46.1593 30.3438 46.0312C30.3741 45.9995 30.4072 45.9694 30.4375 45.9375C30.5302 45.8403 30.5958 45.723 30.6875 45.625C31.3377 44.9193 32.0128 44.2226 32.5625 43.4375C32.6288 43.3428 32.6556 43.2506 32.7188 43.1562C32.8134 43.0227 32.9402 42.9179 33.0312 42.7812C33.2038 42.5222 33.3719 42.237 33.5312 41.9688C34.5613 44.5203 34.1137 47.9004 32.7188 50.0938C32.3426 50.6851 31.853 51.2076 31.3125 51.6875C31.2901 51.7078 31.2361 51.7356 31.2188 51.75C30.7691 52.1226 30.32 52.4709 29.8438 52.8125C29.4377 53.1038 29.0311 53.3962 28.625 53.6875C28.3753 53.8666 28.1247 54.0397 27.875 54.2188C27.8317 54.2469 27.7951 54.2835 27.75 54.3125C27.6829 54.3597 27.6445 54.3685 27.5938 54.4062C27.5903 54.4087 27.5509 54.4441 27.5625 54.4375C27.5494 54.4478 27.4992 54.4676 27.5 54.4688C27.6841 54.7584 27.8902 55.0674 28.0938 55.3438C28.1105 55.3666 28.1323 55.2955 28.1562 55.2812C28.1493 55.287 28.1864 55.2817 28.1875 55.2812C28.1932 55.2788 28.2426 55.2152 28.2812 55.1875C28.2882 55.1825 28.3056 55.1925 28.3125 55.1875C28.421 55.1177 28.517 55.0714 28.625 55C28.848 54.8527 29.1049 54.6754 29.3125 54.5312C29.6718 54.2817 29.9947 53.9813 30.3438 53.7188C30.5866 53.5454 30.823 53.3651 31.0625 53.1875C31.1035 53.1571 31.1467 53.1247 31.1875 53.0938C30.3806 55.7409 28.9546 58.33 26.5 59.5938C23.4354 61.1716 19.6799 61.7838 16.2812 61.75C10.7174 61.6947 5.68172 59.5586 2.90625 54.5625C2.25668 53.3932 1.78584 52.1718 1.59375 50.8438C0.998439 46.7281 2.5091 42.3965 4.125 38.6875C5.30626 35.9762 6.75936 33.3915 8.3125 30.875Z" fill="#232323" stroke="none"/>
</g>
<path d="M19.0688 26.0579C17.4622 26.4702 19.1314 30.7388 20.6298 32.2773C22.1282 33.8159 24.9557 35.9504 25.85 34.8553C26.7443 33.7601 23.9329 32.8824 22.2376 30.6831C20.5422 28.4837 20.6754 25.6456 19.0688 26.0579Z" fill="#ffffff" fill-rule="evenodd" opacity="1" stroke="none"/>
<path d="M47.691 25.064C47.7109 24.1805 48.4432 23.4805 49.3266 23.5004C50.21 23.5203 50.9101 24.2526 50.8902 25.136C50.8703 26.0195 50.138 26.7195 49.2546 26.6996C48.3711 26.6797 47.6711 25.9474 47.691 25.064Z" fill="none" fill-rule="evenodd" opacity="0.995306" stroke="#232323" stroke-dasharray="1.0" stroke-linecap="square" stroke-linejoin="round" stroke-width="2"/>
<path d="M28.2666 25C28.2666 23.6193 29.3859 22.5 30.7666 22.5C32.1473 22.5 33.2666 23.6193 33.2666 25C33.2666 26.3807 32.1473 27.5 30.7666 27.5C29.3859 27.5 28.2666 26.3807 28.2666 25Z" fill="#ffffff" fill-rule="evenodd" opacity="1" stroke="none"/>
<path d="M36.5201 4.66976C36.5201 4.66976 36.1391 3.50668 36.5833 2.64189C37.0275 1.77711 38.08 1.47695 38.08 1.47695L36.5201 4.66976Z" fill="#ffffff" fill-rule="evenodd" opacity="1" stroke="#ffffff" stroke-dasharray="1.0" stroke-linecap="square" stroke-linejoin="round" stroke-width="1.79113"/>
<path d="M40.3056 5.80576C40.3056 5.80576 41.1828 5.16946 42.3131 4.85455C43.4434 4.53965 44.8267 4.54613 44.8267 4.54613L40.3056 5.80576Z" fill="#ffffff" fill-rule="evenodd" opacity="1" stroke="#ffffff" stroke-dasharray="1.0" stroke-linecap="square" stroke-linejoin="round" stroke-width="1.70497"/>
<path d="M46.9995 66.9239L43.8355 70.2452L45.8937 69.5383L47.0718 70.3706L47.9878 69.5716L50.0544 69.9517L46.9995 66.9239Z" fill="#ffffff" fill-rule="evenodd" opacity="1" stroke="none"/>
<path d="M25.1508 67.044L21.9868 70.3685L24.045 69.6609L25.2231 70.494L26.1391 69.6942L28.2057 70.0747L25.1508 67.044Z" fill="#ffffff" fill-rule="evenodd" opacity="1" stroke="none"/>
<path d="M5.88787 4.51733C5.88787 4.51733 10.0439 2.52046 11.032 5.7762C11.9465 8.78929 8.04043 9.3954 8.04043 9.3954L8.88224 11.6265" fill="none" fill-rule="evenodd" opacity="1" stroke="#ffffff" stroke-dasharray="1.0" stroke-linecap="square" stroke-linejoin="round" stroke-width="2"/>
<path d="M8.5494 14.6312C8.5494 13.8028 9.22098 13.1312 10.0494 13.1312C10.8778 13.1312 11.5494 13.8028 11.5494 14.6312C11.5494 15.4596 10.8778 16.1312 10.0494 16.1312C9.22098 16.1312 8.5494 15.4596 8.5494 14.6312Z" fill="#ffffff" fill-rule="evenodd" opacity="1" stroke="none"/>
</g>
</svg>
