<?xml version="1.0" encoding="UTF-8" standalone="no"?>
<!DOCTYPE svg PUBLIC "-//W3C//DTD SVG 1.1//EN" "http://www.w3.org/Graphics/SVG/1.1/DTD/svg11.dtd">
<!-- Created with Vectornator (http://vectornator.io/) -->
<svg height="100%" stroke-miterlimit="10" style="fill-rule:nonzero;clip-rule:evenodd;stroke-linecap:round;stroke-linejoin:round;" version="1.1" viewBox="0 0 256 256" width="100%" xml:space="preserve" xmlns="http://www.w3.org/2000/svg" xmlns:vectornator="http://vectornator.io" xmlns:xlink="http://www.w3.org/1999/xlink">
<defs/>
<g id="레이어-2" vectornator:layerName="레이어 2">
<path d="M81.6562 10C45.7577 10 16.6562 39.1015 16.6562 75C16.6562 110.899 45.7577 140 81.6562 140C99.8326 140 116.266 132.526 128.062 120.5C139.564 108.774 146.656 92.7222 146.656 75C146.656 39.1015 117.555 10 81.6562 10ZM53.3438 41.4062C57.762 41.4062 61.3438 44.988 61.3438 49.4062C61.3438 53.8245 57.762 57.4063 53.3438 57.4062C48.9255 57.4062 45.3437 53.8245 45.3438 49.4062C45.3438 44.988 48.9255 41.4062 53.3438 41.4062Z" fill="#ffffff" fill-rule="evenodd" opacity="1" stroke="none"/>
<path d="M16.1353 65.5632C16.1353 65.5632-19.1215 130.547 30.555 194.472C80.2315 258.398 190.246 203.204 190.246 203.204L99.8915 150.559L16.1353 65.5632Z" fill="#ffffff" fill-rule="evenodd" opacity="1" stroke="none"/>
<path d="M142.488 72.8183C146.175 69.8979 238.262 15.2505 238.262 15.2505C238.262 15.2505 234.904 70.1604 214.835 115.812C205.734 136.516 183.226 163.136 183.226 163.136L173.077 198.422L122.017 168.769L75.0626 144.308C75.0626 144.308 140.785 74.1671 142.488 72.8183Z" fill="#ffffff" fill-rule="evenodd" opacity="1" stroke="none"/>
<path d="M17.1525 69.2985L4.70919 52.3674L24.9041 47.8797L17.1525 69.2985Z" fill="#ffffff" fill-rule="evenodd" opacity="1" stroke="none"/>
<path d="M183.105 163.637L192.25 186.992L251.75 195.597L195.478 202.389L248.055 246.017L165.036 213.853L145.259 216.678L183.105 163.637Z" fill="#ffffff" fill-rule="evenodd" opacity="1" stroke="none"/>
<path d="M238.773 136.223C238.773 136.112 239.178 136.022 239.677 136.022C240.176 136.022 240.581 136.112 240.581 136.223C240.581 136.334 240.176 136.424 239.677 136.424C239.178 136.424 238.773 136.334 238.773 136.223Z" fill="#000000" fill-rule="evenodd" opacity="1" stroke="none"/>
</g>
</svg>
