<?xml version="1.0" encoding="UTF-8" standalone="no"?>
<!DOCTYPE svg PUBLIC "-//W3C//DTD SVG 1.1//EN" "http://www.w3.org/Graphics/SVG/1.1/DTD/svg11.dtd">
<!-- Created with Vectornator (http://vectornator.io/) -->
<svg height="100%" stroke-miterlimit="10" style="fill-rule:nonzero;clip-rule:evenodd;stroke-linecap:round;stroke-linejoin:round;" version="1.1" viewBox="0 0 86 86" width="100%" xml:space="preserve" xmlns="http://www.w3.org/2000/svg" xmlns:vectornator="http://vectornator.io" xmlns:xlink="http://www.w3.org/1999/xlink">
<defs/>
<g id="레이어-1" vectornator:layerName="레이어 1">
<path d="M55.6691 12.5408C55.6691 5.91338 61.0416 0.540797 67.6691 0.540797C74.2965 0.540797 79.6691 5.91338 79.6691 12.5408C79.6691 19.1682 74.2965 24.5408 67.6691 24.5408C61.0416 24.5408 55.6691 19.1682 55.6691 12.5408Z" fill="#000000" fill-rule="nonzero" opacity="1" stroke="none"/>
<path d="M3.81355 13.6395C3.81355 8.11669 8.29071 3.63954 13.8136 3.63954C19.3364 3.63954 23.8136 8.11669 23.8136 13.6395C23.8136 19.1624 19.3364 23.6395 13.8136 23.6395C8.29071 23.6395 3.81355 19.1624 3.81355 13.6395Z" fill="#000000" fill-rule="nonzero" opacity="1" stroke="none"/>
<path d="M0.850746 44.2696C0.850746 21.6259 19.6548 3.26957 42.8507 3.26957C66.0467 3.26957 84.8507 21.6259 84.8507 44.2696C84.8507 66.9132 66.0467 85.2696 42.8507 85.2696C19.6548 85.2696 0.850746 66.9132 0.850746 44.2696Z" fill="#f6f6f6" fill-rule="nonzero" opacity="1" stroke="none"/>
<path d="M8.07641 54.9415C9.80303 52.8695 19.8174 52.9463 21.4289 54.8647C23.0404 56.7832 14.5225 62.6153 14.5225 62.6153C14.5225 62.6153 6.34979 57.0134 8.07641 54.9415Z" fill="#000000" fill-rule="nonzero" opacity="1" stroke="none"/>
<path d="M14.6117 61.4706L13.6814 64.6398L9.77665 68.1564L14.5467 65.4475L20.1467 68.5642L15.393 64.616L14.6117 61.4706Z" fill="#000000" fill-rule="nonzero" opacity="1" stroke="none"/>
<path d="M27.6532 45.4052C23.2669 38.3549 24.8723 30.0699 31.2388 26.9001C37.6054 23.7303 46.3223 26.8761 50.7086 33.9264C55.0948 40.9767 53.4895 49.2617 47.1229 52.4315C40.7563 55.6013 32.0394 52.4555 27.6532 45.4052Z" fill="#000000" fill-rule="nonzero" opacity="1" stroke="none"/>
<path d="M1.85189 35.2173C4.83672 28.8951 10.4679 25.2385 14.4294 27.05C18.3909 28.8616 19.1827 35.4552 16.1979 41.7774C13.213 48.0995 7.58191 51.7562 3.62037 49.9446C-0.341167 48.1331-1.13294 41.5395 1.85189 35.2173Z" fill="#000000" fill-rule="nonzero" opacity="1" stroke="none"/>
<path d="M30.9415 34.9176C30.9415 32.7085 32.7324 30.9176 34.9415 30.9176C37.1506 30.9176 38.9415 32.7085 38.9415 34.9176C38.9415 37.1268 37.1506 38.9176 34.9415 38.9176C32.7324 38.9176 30.9415 37.1268 30.9415 34.9176Z" fill="#f6f6f6" fill-rule="nonzero" opacity="1" stroke="none"/>
<path d="M4.89667 34.4204C4.89667 32.7636 6.23981 31.4204 7.89667 31.4204C9.55352 31.4204 10.8967 32.7636 10.8967 34.4204C10.8967 36.0773 9.55352 37.4204 7.89667 37.4204C6.23981 37.4204 4.89667 36.0773 4.89667 34.4204Z" fill="#f6f6f6" fill-rule="nonzero" opacity="1" stroke="none"/>
<path d="M63.849 8.19596C63.849 8.19596 67.6181 4.84173 71.253 7.77587C74.995 10.7964 72.8283 14.7073 72.8283 14.7073C72.8283 14.7073 70.8723 12.7119 68.6275 11.0841C66.3826 9.45622 63.849 8.19596 63.849 8.19596Z" fill="#f6f6f6" fill-rule="nonzero" opacity="1" stroke="none"/>
<path d="M10.3734 16.9063C10.3734 16.9063 6.26359 13.504 10.3726 10.014C14.0282 6.90927 17.7539 9.97487 17.7539 9.97487C17.7539 9.97487 15.361 11.8001 13.6184 13.4464C11.8758 15.0926 10.3734 16.9063 10.3734 16.9063Z" fill="#f6f6f6" fill-rule="nonzero" opacity="1" stroke="none"/>
<path d="M39.4124 54.0391C39.4124 52.5583 41.4975 51.3579 44.0695 51.3579C46.6415 51.3579 48.7265 52.5583 48.7265 54.0391C48.7265 55.5199 46.6415 56.7204 44.0695 56.7204C41.4975 56.7204 39.4124 55.5199 39.4124 54.0391Z" fill="#ffd0d0" fill-rule="nonzero" opacity="1" stroke="none"/>
<path d="M0.58353 52.6691C0.58353 51.6635 1.92081 50.8484 3.57043 50.8484C5.22005 50.8484 6.55733 51.6635 6.55733 52.6691C6.55733 53.6746 5.22005 54.4898 3.57043 54.4898C1.92081 54.4898 0.58353 53.6746 0.58353 52.6691Z" fill="#ffd0d0" fill-rule="nonzero" opacity="1" stroke="none"/>
</g>
</svg>
