<?xml version="1.0" encoding="UTF-8" standalone="no"?>
<!DOCTYPE svg PUBLIC "-//W3C//DTD SVG 1.1//EN" "http://www.w3.org/Graphics/SVG/1.1/DTD/svg11.dtd">
<!-- Created with Vectornator (http://vectornator.io/) -->
<svg height="100%" stroke-miterlimit="10" style="fill-rule:nonzero;clip-rule:evenodd;stroke-linecap:round;stroke-linejoin:round;" version="1.1" viewBox="0 0 86 86" width="100%" xml:space="preserve" xmlns="http://www.w3.org/2000/svg" xmlns:vectornator="http://vectornator.io" xmlns:xlink="http://www.w3.org/1999/xlink">
<defs/>
<g id="레이어-1" vectornator:layerName="레이어 1">
<path d="M1.19968 44.2696C1.19968 35.2435-0.0242439 21.0727 6.10537 14.6304C13.838 6.5032 29.2499 3.26957 43.1997 3.26957C66.3956 3.26957 85.0891 24.6533 85.0891 47.297C85.0891 69.9407 66.3956 85.2696 43.1997 85.2696C28.2996 85.2696 35.7269 74.9337 28.2712 63.5142C24.1201 57.1562 1.19968 52.3679 1.19968 44.2696Z" fill="#69df70" fill-rule="nonzero" opacity="1" stroke="none"/>
<path d="M56.8412 38.5385C56.8346 37.3858 37.5031 45.8422 24.5429 46.4734C11.5828 47.1047 1.28564 44.1716 1.29218 45.3244C1.29871 46.4771 11.9246 49.2696 24.8847 48.6384C37.8448 48.0071 56.8477 39.6913 56.8412 38.5385Z" fill="#000000" fill-rule="nonzero" opacity="1" stroke="none"/>
<path d="M37.8251 21.2342C37.8251 19.0251 39.616 17.2342 41.8251 17.2342C44.0342 17.2342 45.8251 19.0251 45.8251 21.2342C45.8251 23.4434 44.0342 25.2342 41.8251 25.2342C39.616 25.2342 37.8251 23.4434 37.8251 21.2342Z" fill="#000000" fill-rule="nonzero" opacity="1" stroke="none"/>
<path d="M40.6564 45.4503L44.4669 49.3735L45.214 43.9028L44.3839 44.2125C44.3839 44.2125 44.4539 44.1752 43.451 44.5307C42.4481 44.8863 40.6564 45.4503 40.6564 45.4503Z" fill="#ffffff" fill-rule="nonzero" opacity="1" stroke="none"/>
<path d="M44.8107 44.0815L49.7848 48.3887L50.271 41.9474L44.8107 44.0815Z" fill="#ffffff" fill-rule="nonzero" opacity="1" stroke="none"/>
<path d="M50.1284 42.0253L55.6936 46.7692L55.9257 39.2991L50.1284 42.0253Z" fill="#ffffff" fill-rule="nonzero" opacity="1" stroke="none"/>
<path d="M35.5237 46.7588L39.6681 50.1761L40.7683 45.3714C40.7683 45.3714 39.2149 45.8716 38.1173 46.185C37.0197 46.4984 35.5237 46.7588 35.5237 46.7588Z" fill="#ffffff" fill-rule="nonzero" opacity="1" stroke="none"/>
<path d="M7.60945 24.8988L9.58365 29.8343L7.19183 29.3407L7.60945 24.8988Z" fill="#000000" fill-rule="nonzero" opacity="1" stroke="none"/>
<path d="M5.07129 24.5811L3.09709 29.5166L5.48891 29.023L5.07129 24.5811Z" fill="#000000" fill-rule="nonzero" opacity="1" stroke="none"/>
<path d="M47.5826 3.61374L54.2845 0.455828L56.4927 5.82508L47.5826 3.61374Z" fill="#396b3c" fill-rule="nonzero" opacity="1" stroke="none"/>
<path d="M56.2221 5.70382L64.5085 3.01212L65.3004 10.3778L56.2221 5.70382Z" fill="#396b3c" fill-rule="nonzero" opacity="1" stroke="none"/>
<path d="M65.2407 10.4174L73.0559 7.59369L72.0822 15.8837L65.2407 10.4174Z" fill="#396b3c" fill-rule="nonzero" opacity="1" stroke="none"/>
<path d="M77.1391 22.2895L85.3605 23.5944L81.3395 29.9203L77.1391 22.2895Z" fill="#396b3c" fill-rule="nonzero" opacity="1" stroke="none"/>
<path d="M71.4822 15.2875L81.337 14.9593L77.2986 22.478L71.4822 15.2875Z" fill="#396b3c" fill-rule="nonzero" opacity="1" stroke="none"/>
</g>
</svg>
