<?xml version="1.0" encoding="UTF-8" standalone="no"?>
<!DOCTYPE svg PUBLIC "-//W3C//DTD SVG 1.1//EN" "http://www.w3.org/Graphics/SVG/1.1/DTD/svg11.dtd">
<!-- Created with Vectornator (http://vectornator.io/) -->
<svg height="100%" stroke-miterlimit="10" style="fill-rule:nonzero;clip-rule:evenodd;stroke-linecap:round;stroke-linejoin:round;" version="1.1" viewBox="0 0 86 86" width="100%" xml:space="preserve" xmlns="http://www.w3.org/2000/svg" xmlns:vectornator="http://vectornator.io" xmlns:xlink="http://www.w3.org/1999/xlink">
<defs/>
<clipPath id="ArtboardFrame">
<rect height="86" width="86" x="0" y="0"/>
</clipPath>
<g clip-path="url(#ArtboardFrame)" id="레이어-1" vectornator:layerName="레이어 1">
<path d="M0.850746 44.2696C0.850746 21.6259 19.6548 3.26957 42.8507 3.26957C66.0467 3.26957 84.8507 21.6259 84.8507 44.2696C84.8507 66.9132 66.0467 85.2696 42.8507 85.2696C19.6548 85.2696 0.850746 66.9132 0.850746 44.2696Z" fill="#b08466" fill-rule="nonzero" opacity="1" stroke="none"/>
<path d="M8.19369 47.5771C8.19369 47.5771 9.23031 44.4668 15.0583 44.3405C20.8863 44.2141 23.3669 47.3817 23.3669 47.3817C23.3669 47.3817 34.5387 58.8475 30.6132 63.0993C26.6877 67.3512 23.3739 63.7287 15.8088 62.7324C8.24384 61.7362 5.22971 65.5673 2.84196 60.405C0.454212 55.2427 8.19369 47.5771 8.19369 47.5771Z" fill="#e3c6b2" fill-rule="nonzero" opacity="1" stroke="none"/>
<path d="M9.27528 46.9556C11.0434 44.919 21.0542 45.1981 22.6266 47.1488C24.199 49.0994 15.5649 54.7582 15.5649 54.7582C15.5649 54.7582 7.50713 48.9922 9.27528 46.9556Z" fill="#000000" fill-rule="nonzero" opacity="1" stroke="none"/>
<path d="M15.5956 54.1507L15.0363 57.8147C15.0363 57.8147 10.5628 60.6795 8.27374 59.7998C5.98466 58.9201 6.02682 58.1201 5.48145 58.7309C5.24465 58.9961 5.43903 60.1369 8.16467 60.9124C10.8903 61.6878 13.3326 59.1702 15.4072 59.4944C17.5014 59.8216 21.2351 62.59 23.3478 61.545C25.4604 60.5 27.0891 59.5458 26.2273 59.0581C25.2097 58.4822 24.9858 59.5745 22.4534 60.3888C19.921 61.2031 15.9089 57.9019 15.9089 57.9019L15.5956 54.1507Z" fill="#000000" fill-rule="nonzero" opacity="1" stroke="none"/>
<path d="M30.9415 34.9176C30.9415 32.7085 32.7324 30.9176 34.9415 30.9176C37.1506 30.9176 38.9415 32.7085 38.9415 34.9176C38.9415 37.1268 37.1506 38.9176 34.9415 38.9176C32.7324 38.9176 30.9415 37.1268 30.9415 34.9176Z" fill="#000000" fill-rule="nonzero" opacity="1" stroke="none"/>
<path d="M4.89667 34.4204C4.89667 32.7636 6.23981 31.4204 7.89667 31.4204C9.55352 31.4204 10.8967 32.7636 10.8967 34.4204C10.8967 36.0773 9.55352 37.4204 7.89667 37.4204C6.23981 37.4204 4.89667 36.0773 4.89667 34.4204Z" fill="#000000" fill-rule="nonzero" opacity="1" stroke="none"/>
<path d="M65.5487 20.971C65.5487 17.0161 69.0573 13.81 73.3855 13.81C77.7136 13.81 81.2222 17.0161 81.2222 20.971C81.2222 24.9259 77.7136 28.1319 73.3855 28.1319C69.0573 28.1319 65.5487 24.9259 65.5487 20.971Z" fill="#b08466" fill-rule="nonzero" opacity="1" stroke="none"/>
<path d="M4.56691 20.7187C4.56691 17.6536 7.04773 15.1689 10.108 15.1689C13.1682 15.1689 15.6491 17.6536 15.6491 20.7187C15.6491 23.7837 13.1682 26.2684 10.108 26.2684C7.04773 26.2684 4.56691 23.7837 4.56691 20.7187Z" fill="#b08466" fill-rule="nonzero" opacity="1" stroke="none"/>
<path d="M74.0161 16.7054C74.0161 16.7054 76.9393 15.4969 78.5355 17.599C80.1316 19.701 77.8982 21.9747 77.8982 21.9747L74.0161 16.7054Z" fill="#000000" fill-rule="nonzero" opacity="1" stroke="none"/>
<path d="M7.51025 22.5024C7.51025 22.5024 5.17229 21.0556 7.19852 18.3755C9.24165 15.673 11.0094 17.7779 11.0094 17.7779L7.51025 22.5024Z" fill="#000000" fill-rule="nonzero" opacity="1" stroke="none"/>
<path d="M24.4339 50.3807C24.4339 50.3807 29.3148 46.1894 37.8598 46.0431C46.4048 45.8969 60.9447 52.7958 60.9447 52.7958C60.9447 52.7958 45.6468 46.1937 37.6707 46.9129C29.6947 47.6322 25.6217 51.5833 25.6217 51.5833L24.4339 50.3807Z" fill="#e3c6b2" fill-rule="nonzero" opacity="1" stroke="none"/>
<path d="M26.5893 52.1153C26.5893 52.1153 31.1739 49.4877 37.7644 50.7022C44.3549 51.9167 55.2933 57.512 55.2933 57.512C55.2933 57.512 43.7134 52.4608 37.5043 51.8897C31.2953 51.3185 27.5812 53.3985 27.5812 53.3985L26.5893 52.1153Z" fill="#e3c6b2" fill-rule="nonzero" opacity="1" stroke="none"/>
<path d="M27.974 54.7302C27.974 54.7302 31.0955 52.8732 35.6751 54.4016C40.2548 55.93 47.7884 59.4141 47.7884 59.4141C47.7884 59.4141 39.8707 56.1831 35.4281 55.2428C30.9856 54.3025 28.6329 55.7801 28.6329 55.7801L27.974 54.7302Z" fill="#e3c6b2" fill-rule="nonzero" opacity="1" stroke="none"/>
<path d="M7.22045 49.7393C7.22045 49.7393 5.82346 48.4626 3.72809 48.0391C1.63273 47.6155-0.619033 47.1547-0.619033 47.1547C-0.619033 47.1547 2.02096 48.1052 3.72809 49.05C5.43523 49.9948 6.2095 50.934 6.2095 50.934L7.22045 49.7393Z" fill="#e3c6b2" fill-rule="nonzero" opacity="1" stroke="none"/>
<path d="M5.31542 52.561C5.31542 52.561 4.18528 51.5876 3.02315 51.3835C1.86101 51.1794 0.666884 51.7444 0.666884 51.7444C0.666884 51.7444 1.63084 50.6903 3.0317 50.5133C4.43256 50.3363 6.27031 51.0366 6.27031 51.0366L5.31542 52.561Z" fill="#e3c6b2" fill-rule="nonzero" opacity="1" stroke="none"/>
<path d="M4.45844 52.9198C4.45844 52.9198 3.48146 52.869 2.54459 53.1306C1.60773 53.3923 0.710978 53.9665 0.710978 53.9665C0.710978 53.9665 1.75256 53.6706 2.5295 53.7471C3.30645 53.8235 3.81875 54.2722 3.81875 54.2722L4.45844 52.9198Z" fill="#e3c6b2" fill-rule="nonzero" opacity="1" stroke="none"/>
</g>
</svg>
