<?xml version="1.0" encoding="UTF-8" standalone="no"?>
<!DOCTYPE svg PUBLIC "-//W3C//DTD SVG 1.1//EN" "http://www.w3.org/Graphics/SVG/1.1/DTD/svg11.dtd">
<!-- Created with Vectornator (http://vectornator.io/) -->
<svg height="100%" stroke-miterlimit="10" style="fill-rule:nonzero;clip-rule:evenodd;stroke-linecap:round;stroke-linejoin:round;" version="1.1" viewBox="0 0 86 86" width="100%" xml:space="preserve" xmlns="http://www.w3.org/2000/svg" xmlns:vectornator="http://vectornator.io" xmlns:xlink="http://www.w3.org/1999/xlink">
<defs/>
<g id="레이어-1" vectornator:layerName="레이어 1">
<path d="M0.850746 44.2696C0.850746 21.6259 19.6548 3.26957 42.8507 3.26957C66.0467 3.26957 84.8507 21.6259 84.8507 44.2696C84.8507 66.9132 66.0467 85.2696 42.8507 85.2696C19.6548 85.2696 0.850746 66.9132 0.850746 44.2696Z" fill="#fba368" fill-rule="nonzero" opacity="1" stroke="none"/>
<path d="M7.22194 46.0916C8.94856 44.0197 18.963 44.0964 20.5745 46.0149C22.186 47.9333 13.668 53.7655 13.668 53.7655C13.668 53.7655 5.49532 48.1636 7.22194 46.0916Z" fill="#000000" fill-rule="nonzero" opacity="1" stroke="none"/>
<path d="M13.6321 53.2911L12.5169 58.0628L7.83585 63.3578L13.5542 59.2791L20.2675 63.9717L14.5688 58.0271L13.6321 53.2911Z" fill="#000000" fill-rule="nonzero" opacity="1" stroke="none"/>
<path d="M30.9415 34.9176C30.9415 32.7085 32.7324 30.9176 34.9415 30.9176C37.1506 30.9176 38.9415 32.7085 38.9415 34.9176C38.9415 37.1268 37.1506 38.9176 34.9415 38.9176C32.7324 38.9176 30.9415 37.1268 30.9415 34.9176Z" fill="#000000" fill-rule="nonzero" opacity="1" stroke="none"/>
<path d="M4.89667 34.4204C4.89667 32.7636 6.23981 31.4204 7.89667 31.4204C9.55352 31.4204 10.8967 32.7636 10.8967 34.4204C10.8967 36.0773 9.55352 37.4204 7.89667 37.4204C6.23981 37.4204 4.89667 36.0773 4.89667 34.4204Z" fill="#000000" fill-rule="nonzero" opacity="1" stroke="none"/>
<path d="M84.8935 46.3577C84.8935 46.3577 43.262 42.0567 43.0993 46.248C42.9367 50.4393 81.6943 59.9427 81.6943 59.9427C81.6943 59.9427 83.4732 55.9073 84.3937 51.2707C85.3142 46.634 84.8935 46.3577 84.8935 46.3577Z" fill="#000000" fill-rule="nonzero" opacity="1" stroke="none"/>
<path d="M81.9403 59.3631C81.9403 59.3631 51.8662 55.1309 51.0318 56.6561C50.1974 58.1813 76.1295 69.5037 76.1295 69.5037C76.1295 69.5037 78.0392 67.0057 79.0053 65.3955C80.1257 63.5281 81.9403 59.3631 81.9403 59.3631Z" fill="#000000" fill-rule="nonzero" opacity="1" stroke="none"/>
<path d="M55.6691 12.5408C55.6691 5.91338 61.0416 0.540797 67.6691 0.540797C74.2965 0.540797 79.6691 5.91338 79.6691 12.5408C79.6691 19.1682 74.2965 24.5408 67.6691 24.5408C61.0416 24.5408 55.6691 19.1682 55.6691 12.5408Z" fill="#fba368" fill-rule="nonzero" opacity="1" stroke="none"/>
<path d="M3.81355 13.6395C3.81355 8.11669 8.29071 3.63954 13.8136 3.63954C19.3364 3.63954 23.8136 8.11669 23.8136 13.6395C23.8136 19.1624 19.3364 23.6395 13.8136 23.6395C8.29071 23.6395 3.81355 19.1624 3.81355 13.6395Z" fill="#fba368" fill-rule="nonzero" opacity="1" stroke="none"/>
<path d="M28.5167 5.71077L24.8954 11.5075C24.8954 11.5075 16.4249 13.0505 15.805 14.1982C15.1851 15.3459 23.1895 15.3742 23.1895 15.3742L20.7051 19.8412C20.7051 19.8412 14.6005 20.2332 14.2457 21.1743C13.8909 22.1155 19.7241 23.2082 19.7241 23.2082C19.7241 23.2082 18.0675 27.4835 19.1616 27.9375C20.2558 28.3916 23.8772 23.4281 23.8772 23.4281C23.8772 23.4281 34.6807 23.0817 34.8128 21.6963C34.9449 20.3109 25.268 20.0879 25.268 20.0879L28.116 15.3694C28.116 15.3694 39.8115 14.7119 40.4279 13.1242C41.0443 11.5365 30.0009 11.3058 30.0009 11.3058L34.1018 4.17625C34.1018 4.17625 32.6081 4.43408 30.9643 4.88173C29.3205 5.32937 28.5167 5.71077 28.5167 5.71077Z" fill="#000000" fill-rule="nonzero" opacity="1" stroke="none"/>
<path d="M62.4729 7.48533C62.4729 7.48533 66.0258-0.22728 73.221 5.65213C80.4162 11.5315 73.9241 16.1421 73.9241 16.1421L62.4729 7.48533Z" fill="#000000" fill-rule="nonzero" opacity="1" stroke="none"/>
<path d="M11.0911 17.3462C11.0911 17.3462 4.68141 13.0353 9.71292 8.5565C14.7864 4.0403 18.0615 10.7611 18.0615 10.7611L11.0911 17.3462Z" fill="#000000" fill-rule="nonzero" opacity="1" stroke="none"/>
</g>
</svg>
