<?xml version="1.0" encoding="UTF-8" standalone="no"?>
<!DOCTYPE svg PUBLIC "-//W3C//DTD SVG 1.1//EN" "http://www.w3.org/Graphics/SVG/1.1/DTD/svg11.dtd">
<!-- Created with Vectornator (http://vectornator.io/) -->
<svg height="100%" stroke-miterlimit="10" style="fill-rule:nonzero;clip-rule:evenodd;stroke-linecap:round;stroke-linejoin:round;" version="1.1" viewBox="0 0 86 86" width="100%" xml:space="preserve" xmlns="http://www.w3.org/2000/svg" xmlns:vectornator="http://vectornator.io" xmlns:xlink="http://www.w3.org/1999/xlink">
<defs/>
<g id="레이어-1" vectornator:layerName="레이어 1">
<path d="M2.4065 56.3084C2.4065 54.8629 7.61747 50.9181 7.82564 49.5265C10.0303 34.7881 23.5102 23.4481 39.81 23.4481C57.6489 23.4481 72.1102 37.0307 72.1102 53.7856C72.1102 70.5406 57.6489 84.1231 39.81 84.1231C21.9711 84.1231 2.4065 73.0634 2.4065 56.3084Z" fill="#e9b776" fill-rule="nonzero" opacity="1" stroke="none"/>
<path d="M26.6652 26.0218L15.9517 46.0928C15.9517 46.0928 14.7214 50.2513 10.579 50.1034C6.34141 49.952 2.17949 55.3247 2.17949 55.3247C2.17949 55.3247 0.213224 68.696 13.7572 76.7397C48.3621 97.2914 66.2014 71.3058 66.2014 71.3058C66.2014 71.3058 42.5501 63.1378 30.9346 57.2922C19.319 51.4466 21.0216 46.8495 21.0216 46.8495L32.7304 24.1676C32.7304 24.1676 31.0042 24.4134 29.4879 24.877C27.9716 25.3405 26.6652 26.0218 26.6652 26.0218Z" fill="#f6f6f6" fill-rule="nonzero" opacity="1" stroke="none"/>
<path d="M2.45465 55.5505C4.18127 53.4786 14.1957 53.5553 15.8072 55.4738C17.4187 57.3923 8.90069 63.2244 8.90069 63.2244C8.90069 63.2244 0.72803 57.6225 2.45465 55.5505Z" fill="#000000" fill-rule="nonzero" opacity="1" stroke="none"/>
<path d="M8.82027 61.6856L7.79718 64.2135C7.79718 64.2135 6.47203 65.2204 5.07761 64.834C3.68319 64.4476 2.73095 61.8255 2.46019 62.9086C2.18942 63.9916 3.2046 65.1891 4.83693 65.7366C6.46925 66.2841 8.74881 64.8578 8.74881 64.8578C8.74881 64.8578 11.1475 66.5248 13.1706 66.3684C15.1936 66.212 18.4149 64.7415 17.9842 63.751C17.6834 63.059 14.9609 65.1744 13.1706 65.165C11.3802 65.1555 9.50015 64.2022 9.50015 64.2022L8.82027 61.6856Z" fill="#000000" fill-rule="nonzero" opacity="1" stroke="none"/>
<path d="M24.2067 48.5385C24.2067 46.3293 25.9976 44.5385 28.2067 44.5385C30.4159 44.5385 32.2067 46.3293 32.2067 48.5385C32.2067 50.7476 30.4159 52.5385 28.2067 52.5385C25.9976 52.5385 24.2067 50.7476 24.2067 48.5385Z" fill="#000000" fill-rule="nonzero" opacity="1" stroke="none"/>
<path d="M7.69651 46.6792C7.69651 45.0223 9.03965 43.6792 10.6965 43.6792C12.3534 43.6792 13.6965 45.0223 13.6965 46.6792C13.6965 48.336 12.3534 49.6792 10.6965 49.6792C9.03965 49.6792 7.69651 48.336 7.69651 46.6792Z" fill="#000000" fill-rule="nonzero" opacity="1" stroke="none"/>
<path d="M50.0038 24.9931C50.0038 24.9931 81.0492 6.38324 84.5671 8.59871C90.9614 12.6256 70.5354 45.6691 70.5354 45.6691L50.0038 24.9931Z" fill="#e9b776" fill-rule="nonzero" opacity="1" stroke="none"/>
<path d="M12.601 37.2712C12.601 37.2712 14.8853 8.54841 16.7084 6.06267C20.022 1.54446 27.1856 25.7584 27.1856 25.7584L12.601 37.2712Z" fill="#e9b776" fill-rule="nonzero" opacity="1" stroke="none"/>
<path d="M16.4057 12.4947C17.408 11.0002 16.6253 31.745 16.6253 31.745C16.6253 31.745 14.2985 36.1799 13.9993 34.5908C13.2468 30.594 15.4033 13.9892 16.4057 12.4947Z" fill="#ffa897" fill-rule="nonzero" opacity="1" stroke="none"/>
<path d="M60.8803 26.5535C67.5336 20.8317 80.8369 11.814 83.2033 14.0677C84.7924 15.5812 73.9127 37.8139 70.6588 40.7651C68.5736 42.6564 66.0638 35.5584 63.6801 32.9856C61.2965 30.4128 57.0967 29.8074 60.8803 26.5535Z" fill="#ffa897" fill-rule="nonzero" opacity="1" stroke="none"/>
</g>
</svg>
