<?xml version="1.0" encoding="UTF-8" standalone="no"?>
<!DOCTYPE svg PUBLIC "-//W3C//DTD SVG 1.1//EN" "http://www.w3.org/Graphics/SVG/1.1/DTD/svg11.dtd">
<!-- Created with Vectornator (http://vectornator.io/) -->
<svg height="100%" stroke-miterlimit="10" style="fill-rule:nonzero;clip-rule:evenodd;stroke-linecap:round;stroke-linejoin:round;" version="1.1" viewBox="0 0 86 86" width="100%" xml:space="preserve" xmlns="http://www.w3.org/2000/svg" xmlns:vectornator="http://vectornator.io" xmlns:xlink="http://www.w3.org/1999/xlink">
<defs/>
<clipPath id="ArtboardFrame">
<rect height="86" width="86" x="0" y="0"/>
</clipPath>
<g clip-path="url(#ArtboardFrame)" id="레이어-1" vectornator:layerName="레이어 1">
<path d="M0.850746 44.2696C0.850746 21.6259 19.6548 3.26957 42.8507 3.26957C66.0467 3.26957 84.8507 21.6259 84.8507 44.2696C84.8507 66.9132 66.0467 85.2696 42.8507 85.2696C19.6548 85.2696 0.850746 66.9132 0.850746 44.2696Z" fill="#ff9692" fill-rule="nonzero" opacity="1" stroke="none"/>
<path d="M30.9415 34.9176C30.9415 32.7085 32.7324 30.9176 34.9415 30.9176C37.1506 30.9176 38.9415 32.7085 38.9415 34.9176C38.9415 37.1268 37.1506 38.9176 34.9415 38.9176C32.7324 38.9176 30.9415 37.1268 30.9415 34.9176Z" fill="#000000" fill-rule="nonzero" opacity="1" stroke="none"/>
<path d="M4.89667 34.4204C4.89667 32.7636 6.23981 31.4204 7.89667 31.4204C9.55352 31.4204 10.8967 32.7636 10.8967 34.4204C10.8967 36.0773 9.55352 37.4204 7.89667 37.4204C6.23981 37.4204 4.89667 36.0773 4.89667 34.4204Z" fill="#000000" fill-rule="nonzero" opacity="1" stroke="none"/>
<path d="M-0.181527 58.2357C-0.181527 48.2945 8.77278 40.2357 19.8185 40.2357C30.8642 40.2357 39.8185 48.2945 39.8185 58.2357C39.8185 68.1768 30.8642 76.2357 19.8185 76.2357C8.77278 76.2357-0.181527 68.1768-0.181527 58.2357Z" fill="#fb6e68" fill-rule="nonzero" opacity="1" stroke="none"/>
<path d="M1.95602 57.4489C1.95602 53.5829 4.64231 50.4489 7.95602 50.4489C11.2697 50.4489 13.956 53.5829 13.956 57.4489C13.956 61.3149 11.2697 64.4489 7.95602 64.4489C4.64231 64.4489 1.95602 61.3149 1.95602 57.4489Z" fill="#d06560" fill-rule="nonzero" opacity="1" stroke="none"/>
<path d="M15.3546 58.0636C15.3546 54.1976 18.0409 51.0636 21.3546 51.0636C24.6683 51.0636 27.3546 54.1976 27.3546 58.0636C27.3546 61.9296 24.6683 65.0636 21.3546 65.0636C18.0409 65.0636 15.3546 61.9296 15.3546 58.0636Z" fill="#d06560" fill-rule="nonzero" opacity="1" stroke="none"/>
<path d="M58.4367 5.69157C58.4367 5.69157 67.6667 4.15017 73.2635 7.89357C78.8602 11.637 83.8292 19.5763 83.8292 19.5763C83.8292 19.5763 71.4593 35.7532 66.1195 31.9547C60.7796 28.1563 58.4367 5.69157 58.4367 5.69157Z" fill="#fb6e68" fill-rule="nonzero" opacity="1" stroke="none"/>
<path d="M6.97411 23.0223C6.97411 23.0223 11.4513 16.9862 14.8812 13.9764C18.3111 10.9666 25.2994 6.83136 25.2994 6.83136C25.2994 6.83136 11.6546 8.68594 8.20386 11.2349C4.75314 13.7838 6.97411 23.0223 6.97411 23.0223Z" fill="#fb6e68" fill-rule="nonzero" opacity="1" stroke="none"/>
</g>
</svg>
