<?xml version="1.0" encoding="UTF-8" standalone="no"?>
<!DOCTYPE svg PUBLIC "-//W3C//DTD SVG 1.1//EN" "http://www.w3.org/Graphics/SVG/1.1/DTD/svg11.dtd">
<!-- Created with Vectornator (http://vectornator.io/) -->
<svg height="100%" stroke-miterlimit="10" style="fill-rule:nonzero;clip-rule:evenodd;stroke-linecap:round;stroke-linejoin:round;" version="1.1" viewBox="0 0 86 86" width="100%" xml:space="preserve" xmlns="http://www.w3.org/2000/svg" xmlns:vectornator="http://vectornator.io" xmlns:xlink="http://www.w3.org/1999/xlink">
<defs/>
<g id="레이어-1" vectornator:layerName="레이어 1">
<path d="M53.4407 57.1252C56.6841 56.3185 62.8968 56.7686 69.0327 57.6727C77.3867 58.9036 85.5982 60.9759 85.9794 61.8632C86.5567 63.2069 74.867 80.7701 67.0058 83.4095C56.3442 86.9892 47.2048 85.5799 41.9771 76.3476C36.7494 67.1153 42.3597 59.8813 53.4407 57.1252Z" fill="#77ab6b" fill-rule="nonzero" opacity="1" stroke="none"/>
<path d="M55.4776 85.3176L68.0549 85.2452L65.9175 84.1888L72.7539 82.7976L69.8275 81.9551L76.5613 80.1425L73.4379 79.4391L79.5358 76.556L76.384 76.058L82.9121 72.3162L79.6877 72.2742L84.7548 67.6784L82.9187 67.5516L55.4776 85.3176Z" fill="#77ab6b" fill-rule="nonzero" opacity="1" stroke="none"/>
<path d="M47.9946 60.0912L56.2023 55.4023L55.2625 57.0251L63.4113 55.2992L63.0883 56.712L68.0442 55.8159L67.5761 57.2359L73.9576 56.9601L72.7532 57.967L79.5846 58.4498L78.6527 59.0543L84.2061 59.7241L82.3805 60.1371L47.9946 60.0912Z" fill="#77ab6b" fill-rule="nonzero" opacity="1" stroke="none"/>
<path d="M37.1637 77.0147L49.0904 72.4382C49.0904 72.4382 53.8492 58.9564 53.5524 59.459C53.2556 59.9616 51.4978 71.7339 51.4978 71.7339C51.4978 71.7339 54.7898 70.1548 56.9373 69.3559C59.0849 68.557 60.5767 68.0937 60.5767 68.0937L65.2604 59.0986L62.5292 67.6449C62.5292 67.6449 63.863 67.127 65.551 66.5455C67.2391 65.964 69.2026 65.5195 69.2026 65.5195L73.409 60.3136L71.2104 65.1212C71.2104 65.1212 72.8679 64.612 75.7869 63.9473C78.7059 63.2826 82.8218 63.4865 82.8218 63.4865L76.0547 65.137L71.5766 66.6819L80.1897 68.957L69.811 67.1751C69.811 67.1751 67.9552 67.525 66.1995 68.1879C64.4438 68.8509 63.2413 69.1388 63.2413 69.1388L71.8741 74.6509L61.674 69.8255C61.674 69.8255 60.1842 70.1377 57.9378 70.9918C55.6913 71.8459 52.5407 73.6178 52.5407 73.6178L57.609 77.7403L60.9317 80.3051L50.4165 74.491L38.4953 79.677L37.1637 77.0147Z" fill="#48763d" fill-rule="nonzero" opacity="1" stroke="none"/>
<path d="M7.88131 34.984L19.0791 17.7795L18.5793 22.0792L31.8074 11.283L32.2517 14.5954L40.4072 8.35885L40.5991 11.8129L51.7335 5.66625L50.3201 8.87501L62.7999 3.96426L61.5805 6.07226L71.9255 2.67542L68.9809 5.15065L7.88131 34.984Z" fill="#93ea7e" fill-rule="nonzero" opacity="1" stroke="none"/>
<path d="M19.4229 21.658C24.6453 17.1772 36.0451 12.8954 47.6254 9.65698C63.3919 5.24789 79.493 2.77287 80.7941 4.3631C82.7644 6.77124 74.1978 54.5103 62.0187 66.8453C45.5013 83.5743 28.2085 88.2628 12.4208 72.7823C-3.36683 57.3018 1.5808 36.9663 19.4229 21.658Z" fill="#93ea7e" fill-rule="nonzero" opacity="1" stroke="none"/>
<path d="M43 80.1648L63.5973 71.6044L59.4164 69.2916L70.9804 58.6172L67.6891 57.1939L75.4281 48.6544L72.1368 47.1422L78.6304 38.7806L75.3391 38.8695L82.0996 26.2381L78.2746 27.3056L82.9002 15.2968L79.2531 17.2538L43 80.1648Z" fill="#93ea7e" fill-rule="nonzero" opacity="1" stroke="none"/>
<path d="M4.2996 78.2893L22.3767 58.3422C22.3767 58.3422 21.4333 25.2596 21.2554 26.5939C21.0775 27.9282 26.1791 54.7891 26.1791 54.7891C26.1791 54.7891 30.9477 48.6024 34.2203 45.0649C37.4929 41.5274 39.8304 39.2677 39.8304 39.2677L41.8926 15.9195L43 36.6497C43 36.6497 45.0174 34.4056 47.6223 31.7252C50.2271 29.0448 53.4194 26.4268 53.4194 26.4268L57.2816 11.6498L56.7231 23.871C56.7231 23.871 59.324 21.3721 64.067 17.4717C68.8099 13.5714 76.2963 10.5314 76.2963 10.5314L65.3773 19.8099L58.4685 26.9254L75.4281 24.548L55.6634 29.4812C55.6634 29.4812 52.5973 31.8041 49.9286 34.7173C47.26 37.6305 45.3159 39.2677 45.3159 39.2677L64.5757 43.8509L43 42.0728C43 42.0728 40.5605 44.0052 37.15 47.7452C33.7396 51.4853 29.3582 57.9682 29.3582 57.9682L41.2858 62.5693L49.0089 65.2887L26.1791 61.6459L8.53836 82.9021L4.2996 78.2893Z" fill="#48763d" fill-rule="nonzero" opacity="1" stroke="none"/>
</g>
</svg>
