<?xml version="1.0" encoding="UTF-8" standalone="no"?>
<!DOCTYPE svg PUBLIC "-//W3C//DTD SVG 1.1//EN" "http://www.w3.org/Graphics/SVG/1.1/DTD/svg11.dtd">
<!-- Created with Vectornator (http://vectornator.io/) -->
<svg height="100%" stroke-miterlimit="10" style="fill-rule:nonzero;clip-rule:evenodd;stroke-linecap:round;stroke-linejoin:round;" version="1.1" viewBox="0 0 86 86" width="100%" xml:space="preserve" xmlns="http://www.w3.org/2000/svg" xmlns:vectornator="http://vectornator.io" xmlns:xlink="http://www.w3.org/1999/xlink">
<defs/>
<g id="레이어-1" vectornator:layerName="레이어 1">
<path d="M1.47555 36.6733C1.47555 14.5129 17.6798 0.363872 46.977 0.363872C76.2741 0.363872 84.1295 26.8076 84.1295 48.968C84.1295 59.2186 76.2983 45.3366 60.0362 55.151C52.5533 59.667 49.6025 55.1642 45.0847 59.5207C40.5668 63.8773 43.2621 63.8201 41.5747 66.2501C40.8742 67.2588 37.0651 67.8216 35.0395 65.7765C33.0139 63.7315 34.953 59.799 33.2212 59.7443C31.2539 59.6821 32.0372 64.1685 30.9348 65.3891C30.1002 66.313 23.6706 66.6606 21.6991 64.3558C20.3131 62.7354 22.4825 57.9685 19.936 57.8409C17.9549 57.7417 17.7551 60.6375 16.8589 63.4756C16.6121 64.2569 14.1436 65.2514 11.4913 62.935C8.839 60.6186 8.62878 56.7353 6.44512 54.3153C3.39431 50.9344 1.47555 41.0412 1.47555 36.6733Z" fill="#ededed" fill-rule="nonzero" opacity="1" stroke="none"/>
<path d="M6.7035 29.9518C6.7035 25.5335 10.2852 21.9518 14.7035 21.9518C19.1218 21.9518 22.7035 25.5335 22.7035 29.9518C22.7035 34.37 19.1218 37.9518 14.7035 37.9518C10.2852 37.9518 6.7035 34.37 6.7035 29.9518Z" fill="#000000" fill-rule="nonzero" opacity="1" stroke="none"/>
<path d="M32.7969 31.7713C32.7969 26.8007 36.8263 22.7713 41.7969 22.7713C46.7674 22.7713 50.7969 26.8007 50.7969 31.7713C50.7969 36.7419 46.7674 40.7713 41.7969 40.7713C36.8263 40.7713 32.7969 36.7419 32.7969 31.7713Z" fill="#000000" fill-rule="nonzero" opacity="1" stroke="none"/>
<path d="M24.7201 39.2113C22.9153 38.7683 17.9795 46.5441 18.4227 47.4016C18.7759 48.0851 23.0252 48.39 23.0252 48.39C23.0252 48.39 25.1387 39.3141 24.7201 39.2113Z" fill="#000000" fill-rule="nonzero" opacity="1" stroke="none"/>
<path d="M25.7126 39.2777C28.2941 39.4671 29.9537 48.3025 29.3266 48.8843C28.7643 49.406 24.0137 48.4827 24.0137 48.4827C24.0137 48.4827 25.0318 39.2277 25.7126 39.2777Z" fill="#000000" fill-rule="nonzero" opacity="1" stroke="none"/>
<path d="M10.3679 65.0006C11.5038 64.1216 15.0616 64.9715 16.0111 65.6073C17.1878 66.3953 16.4549 70.2709 17.7965 70.9924C19.1381 71.7139 19.1622 68.2841 21.688 66.6107C23.0683 65.6962 28.7362 67.0618 29.4411 67.6334C31.2105 69.0682 28.8884 72.2113 31.4061 72.3591C33.9239 72.5069 32.9102 69.33 34.8704 67.8757C36.1451 66.9299 39.7228 67.8346 40.2389 68.1994C41.8614 69.3464 42.1217 71.4291 42.1217 71.4291C42.1217 71.4291 48.8093 66.325 58.6067 61.3935C68.4042 56.4619 76.5 52.0396 76.5 52.0396L83.6341 52.3368C83.6341 52.3368 71.7816 61.5789 68.6724 65.1187C62.2319 72.4509 57.0112 83.5723 53.6075 85.0149C48.7389 87.0783 15.9182 82.3113 10.8508 79.6698C6.75288 77.5336 9.41574 65.7373 10.3679 65.0006Z" fill="#ededed" fill-rule="nonzero" opacity="1" stroke="none"/>
<path d="M64.4174 11.7234L58.3146 10.916L62.7273 3.61339C62.7273 3.61339 62.0415 3.16493 61.3358 2.85636C60.6301 2.5478 59.9047 2.37913 59.9047 2.37913L55.7914 10.9196L47.8647 17.1619L37.5599 18.2518L48.7564 18.7472L55.4941 13.6939L56.6759 18.3177L61.1735 17.8046L63.2351 20.8989L61.2941 16.8369L57.5373 17.0366L57.8722 11.7123L64.4174 11.7234Z" fill="#868686" fill-rule="nonzero" opacity="1" stroke="none"/>
</g>
</svg>
